<svg version="1.1" viewBox="0.0 0.0 732.0603674540682 264.88451443569556" fill="none" stroke="none" stroke-linecap="square" stroke-miterlimit="10" xmlns:xlink="http://www.w3.org/1999/xlink" xmlns="http://www.w3.org/2000/svg"><clipPath id="p.0"><path d="m0 0l732.06036 0l0 264.88452l-732.06036 0l0 -264.88452z" clip-rule="nonzero"/></clipPath><g clip-path="url(#p.0)"><path fill="#000000" fill-opacity="0.0" d="m0 0l732.06036 0l0 264.88452l-732.06036 0z" fill-rule="evenodd"/><path fill="#ffffff" d="m-0.7637795 -0.7637795l732.063 0l0 264.8819l-732.063 0z" fill-rule="evenodd"/><path stroke="#ffffff" stroke-width="1.0" stroke-linejoin="round" stroke-linecap="butt" d="m-0.7637795 -0.7637795l732.063 0l0 264.8819l-732.063 0z" fill-rule="evenodd"/><path fill="#000000" fill-opacity="0.0" d="m592.1365 55.750656l127.27557 0l0 140.91339l-127.27557 0z" fill-rule="evenodd"/><path stroke="#000000" stroke-width="2.0" stroke-linejoin="round" stroke-linecap="butt" d="m592.1365 55.750656l127.27557 0l0 140.91339l-127.27557 0z" fill-rule="evenodd"/><path fill="#cfe2f3" d="m12.53801 9.43832l241.6063 0l0 25.669292l-241.6063 0z" fill-rule="evenodd"/><path stroke="#1155cc" stroke-width="1.0" stroke-linejoin="round" stroke-linecap="butt" d="m12.53801 9.43832l241.6063 0l0 25.669292l-241.6063 0z" fill-rule="evenodd"/><path fill="#000000" d="m128.8021 16.42984q1.90625 0 3.015625 0.921875q1.125 0.921875 1.1875 2.703125l-1.4375 0q-0.125 -1.171875 -0.84375 -1.75q-0.703125 -0.59375 -1.984375 -0.59375q-1.21875 0 -1.890625 0.515625q-0.671875 0.5 -0.671875 1.4375q0 0.671875 0.5625 1.109375q0.578125 0.421875 3.109375 0.921875q1.828125 0.375 2.734375 1.15625q0.90625 0.765625 0.90625 2.140625q0 1.59375 -1.3125 2.515625q-1.296875 0.90625 -3.15625 0.90625q-2.078125 0 -3.390625 -1.046875q-1.3125 -1.046875 -1.328125 -3.0l1.4375 0q0.015625 1.3125 0.9375 2.03125q0.921875 0.71875 2.390625 0.71875q1.390625 0 2.140625 -0.53125q0.765625 -0.53125 0.765625 -1.546875q0 -0.8125 -0.703125 -1.296875q-0.6875 -0.5 -2.515625 -0.84375q-2.4375 -0.46875 -3.265625 -1.1875q-0.828125 -0.734375 -0.828125 -1.9375q0 -1.53125 1.15625 -2.4375q1.171875 -0.90625 2.984375 -0.90625zm10.9765625 0.359375l0 11.34375l-1.359375 0l0 -8.125l-2.953125 0l0 -1.09375l0.046875 0q1.4375 0 2.21875 -0.515625q0.796875 -0.515625 1.0 -1.609375l1.046875 0z" fill-rule="nonzero"/><path fill="#cfe2f3" d="m12.538043 60.83202l144.0315 0l0 25.669292l-144.0315 0z" fill-rule="evenodd"/><path stroke="#1155cc" stroke-width="1.0" stroke-linejoin="round" stroke-linecap="butt" d="m12.538043 60.83202l144.0315 0l0 25.669292l-144.0315 0z" fill-rule="evenodd"/><path fill="#000000" d="m80.014725 67.82354q1.90625 0 3.015625 0.921875q1.125 0.921875 1.1875 2.703125l-1.4375 0q-0.125 -1.171875 -0.84375 -1.75q-0.703125 -0.59375 -1.984375 -0.59375q-1.21875 0 -1.890625 0.515625q-0.671875 0.5 -0.671875 1.4375q0 0.671875 0.5625 1.109375q0.578125 0.421875 3.109375 0.921875q1.828125 0.375 2.734375 1.15625q0.90625 0.765625 0.90625 2.140625q0 1.59375 -1.3125 2.515625q-1.296875 0.90625 -3.15625 0.90625q-2.078125 0 -3.390625 -1.046875q-1.3125 -1.046875 -1.328125 -3.0l1.4375 0q0.015625 1.3125 0.9375 2.03125q0.921875 0.71875 2.390625 0.71875q1.390625 0 2.140625 -0.53125q0.765625 -0.53125 0.765625 -1.546875q0 -0.8125 -0.703125 -1.296875q-0.6875 -0.5 -2.515625 -0.84375q-2.4375 -0.46875 -3.265625 -1.1875q-0.828125 -0.734375 -0.828125 -1.9375q0 -1.53125 1.15625 -2.4375q1.171875 -0.90625 2.984375 -0.90625zm9.4921875 0.359375q1.640625 0 2.546875 0.8125q0.90625 0.796875 0.90625 2.21875q0 0.6875 -0.40625 1.296875q-0.390625 0.59375 -1.15625 0.96875l0 0.03125q1.0 0.21875 1.515625 0.9375q0.53125 0.71875 0.53125 1.8125q0 1.578125 -1.09375 2.53125q-1.078125 0.9375 -2.8125 0.9375q-1.703125 0 -2.75 -0.953125q-1.03125 -0.953125 -1.03125 -2.703125l0 -0.0625l1.375 0q0.046875 1.21875 0.6875 1.859375q0.640625 0.640625 1.71875 0.640625q1.0625 0 1.765625 -0.609375q0.703125 -0.625 0.703125 -1.578125q0 -1.0 -0.671875 -1.578125q-0.65625 -0.59375 -1.796875 -0.59375q-0.171875 0 -0.375 0.015625q-0.1875 0 -0.390625 0.03125l0 -1.15625q0.171875 0.015625 0.5 0.015625q0.78125 0 1.25 -0.25q0.46875 -0.25 0.734375 -0.640625q0.265625 -0.40625 0.265625 -0.96875q0 -0.84375 -0.546875 -1.328125q-0.546875 -0.484375 -1.46875 -0.484375q-0.984375 0 -1.5625 0.65625q-0.5625 0.640625 -0.578125 1.796875l-1.359375 0q0.078125 -1.765625 0.984375 -2.703125q0.921875 -0.953125 2.515625 -0.953125z" fill-rule="nonzero"/><path fill="#cfe2f3" d="m12.53793 86.52756l63.401577 0l0 25.669296l-63.401577 0z" fill-rule="evenodd"/><path stroke="#1155cc" stroke-width="1.0" stroke-linejoin="round" stroke-linecap="butt" d="m12.53793 86.52756l63.401577 0l0 25.669296l-63.401577 0z" fill-rule="evenodd"/><path fill="#000000" d="m39.699654 93.51908q1.90625 0 3.015625 0.921875q1.125 0.921875 1.1875 2.703125l-1.4375 0q-0.125 -1.171875 -0.84375 -1.75q-0.703125 -0.59375 -1.984375 -0.59375q-1.21875 0 -1.890625 0.515625q-0.671875 0.5 -0.671875 1.4375q0 0.671875 0.5625 1.109375q0.578125 0.421875 3.109375 0.921875q1.828125 0.375 2.734375 1.15625q0.90625 0.765625 0.90625 2.140625q0 1.59375 -1.3125 2.515625q-1.296875 0.90625 -3.15625 0.90625q-2.078125 0 -3.390625 -1.046875q-1.3125 -1.046875 -1.328125 -3.0l1.4375 0q0.015625 1.3125 0.9375 2.03125q0.921875 0.71875 2.390625 0.71875q1.390625 0 2.140625 -0.53125q0.765625 -0.53125 0.765625 -1.546875q0 -0.8125 -0.703125 -1.296875q-0.6875 -0.5 -2.515625 -0.84375q-2.4375 -0.46875 -3.265625 -1.1875q-0.828125 -0.734375 -0.828125 -1.9375q0 -1.53125 1.15625 -2.4375q1.171875 -0.90625 2.984375 -0.90625zm11.9765625 0.359375l0 7.484375l1.546875 0l0 1.203125l-1.546875 0l0 2.65625l-1.28125 0l0 -2.65625l-4.96875 0l0 -1.3125l5.171875 -7.375l1.078125 0zm-1.3125 1.9375l-3.765625 5.546875l3.796875 0l0 -5.546875l-0.03125 0z" fill-rule="nonzero"/><path fill="#cfe2f3" d="m12.5380335 35.48819l295.87402 0l0 25.669292l-295.87402 0z" fill-rule="evenodd"/><path stroke="#1155cc" stroke-width="1.0" stroke-linejoin="round" stroke-linecap="butt" d="m12.5380335 35.48819l295.87402 0l0 25.669292l-295.87402 0z" fill-rule="evenodd"/><path fill="#000000" d="m151.40865 50.495335l1.4375 -0.125q0.09375 0.859375 0.46875 1.421875q0.375 0.546875 1.15625 0.890625q0.78125 0.328125 1.75 0.328125q0.875 0 1.53125 -0.25q0.671875 -0.265625 0.984375 -0.703125q0.328125 -0.453125 0.328125 -0.984375q0 -0.546875 -0.3125 -0.9375q-0.3125 -0.40625 -1.03125 -0.6875q-0.453125 -0.171875 -2.03125 -0.546875q-1.578125 -0.390625 -2.21875 -0.71875q-0.8125 -0.4375 -1.21875 -1.0625q-0.40625 -0.640625 -0.40625 -1.4375q0 -0.859375 0.484375 -1.609375q0.5 -0.765625 1.4375 -1.15625q0.953125 -0.390625 2.109375 -0.390625q1.28125 0 2.25 0.421875q0.96875 0.40625 1.484375 1.203125q0.53125 0.796875 0.578125 1.796875l-1.453125 0.109375q-0.125 -1.078125 -0.796875 -1.625q-0.671875 -0.5625 -2.0 -0.5625q-1.375 0 -2.0 0.5q-0.625 0.5 -0.625 1.21875q0 0.609375 0.4375 1.015625q0.4375 0.390625 2.28125 0.8125q1.859375 0.421875 2.546875 0.734375q1.0 0.453125 1.46875 1.171875q0.484375 0.703125 0.484375 1.625q0 0.90625 -0.53125 1.71875q-0.515625 0.8125 -1.5 1.265625q-0.984375 0.453125 -2.203125 0.453125q-1.5625 0 -2.609375 -0.453125q-1.046875 -0.46875 -1.65625 -1.375q-0.59375 -0.90625 -0.625 -2.0625zm18.015625 2.328125l0 1.359375l-7.578125 0q-0.015625 -0.515625 0.171875 -0.984375q0.28125 -0.765625 0.921875 -1.515625q0.640625 -0.75 1.84375 -1.734375q1.859375 -1.53125 2.515625 -2.421875q0.65625 -0.90625 0.65625 -1.703125q0 -0.828125 -0.59375 -1.40625q-0.59375 -0.578125 -1.5625 -0.578125q-1.015625 0 -1.625 0.609375q-0.609375 0.609375 -0.609375 1.6875l-1.453125 -0.140625q0.15625 -1.625 1.125 -2.46875q0.96875 -0.84375 2.59375 -0.84375q1.65625 0 2.609375 0.921875q0.96875 0.90625 0.96875 2.25q0 0.6875 -0.28125 1.359375q-0.28125 0.65625 -0.9375 1.390625q-0.65625 0.734375 -2.171875 2.015625q-1.265625 1.0625 -1.625 1.453125q-0.359375 0.375 -0.59375 0.75l5.625 0z" fill-rule="nonzero"/><path fill="#d9ead3" d="m96.96 112.2231l29.6063 0l0 102.80315l-29.6063 0z" fill-rule="evenodd"/><path stroke="#38761d" stroke-width="1.0" stroke-linejoin="round" stroke-linecap="butt" d="m96.96 112.2231l29.6063 0l0 102.80315l-29.6063 0z" fill-rule="evenodd"/><path fill="#000000" d="m116.34128 158.06279l0 1.28125l-3.8125 0l0 10.140625l-1.515625 0l0 -10.140625l-3.8125 0l0 -1.28125l9.140625 0z" fill-rule="nonzero"/><path fill="#cfe2f3" d="m599.61365 65.49869l24.0 0l0 24.0l-24.0 0z" fill-rule="evenodd"/><path stroke="#1155cc" stroke-width="1.0" stroke-linejoin="round" stroke-linecap="butt" d="m599.61365 65.49869l24.0 0l0 24.0l-24.0 0z" fill-rule="evenodd"/><path fill="#000000" fill-opacity="0.0" d="m623.29083 58.11286l79.40155 0l0 38.771652l-79.40155 0z" fill-rule="evenodd"/><path fill="#000000" d="m638.3002 70.76974q1.90625 0 3.015625 0.921875q1.125 0.921875 1.1875 2.703125l-1.4375 0q-0.125 -1.171875 -0.84375 -1.75q-0.703125 -0.59375 -1.984375 -0.59375q-1.21875 0 -1.890625 0.515625q-0.671875 0.5 -0.671875 1.4375q0 0.671875 0.5625 1.109375q0.578125 0.421875 3.109375 0.921875q1.828125 0.375 2.734375 1.15625q0.90625 0.765625 0.90625 2.140625q0 1.59375 -1.3125 2.515625q-1.296875 0.90625 -3.15625 0.90625q-2.078125 0 -3.390625 -1.046875q-1.3125 -1.046875 -1.328125 -3.0l1.4375 0q0.015625 1.3125 0.9375 2.03125q0.921875 0.71875 2.390625 0.71875q1.390625 0 2.140625 -0.53125q0.765625 -0.53125 0.765625 -1.546875q0 -0.8125 -0.703125 -1.296875q-0.6875 -0.5 -2.515625 -0.84375q-2.4375 -0.46875 -3.265625 -1.1875q-0.828125 -0.734375 -0.828125 -1.9375q0 -1.53125 1.15625 -2.4375q1.171875 -0.90625 2.984375 -0.90625zm9.6796875 3.234375q1.6875 0 2.390625 0.609375q0.71875 0.59375 0.71875 1.609375q0 4.296875 0 4.765625q0 0.46875 0.421875 0.46875q0.09375 0 0.203125 -0.015625q0.109375 -0.03125 0.21875 -0.0625l0 1.0625q-0.1875 0.109375 -0.4375 0.171875q-0.25 0.0625 -0.53125 0.0625q-0.5625 0 -0.859375 -0.3125q-0.296875 -0.328125 -0.296875 -0.984375q-0.546875 0.640625 -1.28125 0.96875q-0.734375 0.328125 -1.640625 0.328125q-1.28125 0 -2.015625 -0.609375q-0.71875 -0.609375 -0.71875 -1.71875q0 -1.125 0.703125 -1.765625q0.71875 -0.65625 3.359375 -0.984375q0.890625 -0.125 1.203125 -0.34375q0.3125 -0.234375 0.3125 -0.6875q0 -0.6875 -0.4375 -1.015625q-0.4375 -0.34375 -1.40625 -0.34375q-1.0 0 -1.515625 0.390625q-0.5 0.375 -0.53125 1.171875l-1.359375 0q0.0625 -1.375 0.96875 -2.0625q0.90625 -0.703125 2.53125 -0.703125zm-2.390625 6.234375q0 0.578125 0.421875 0.90625q0.421875 0.3125 1.1875 0.3125q1.140625 0 1.828125 -0.5625q0.6875 -0.578125 0.6875 -1.28125l0 -1.421875q-0.34375 0.25 -0.890625 0.34375q-0.546875 0.078125 -1.453125 0.203125q-0.90625 0.125 -1.34375 0.484375q-0.4375 0.359375 -0.4375 1.015625zm11.59375 -6.234375q0.90625 0 1.46875 0.375q0.578125 0.359375 0.796875 1.03125q0.421875 -0.65625 1.09375 -1.03125q0.6875 -0.375 1.515625 -0.375q1.390625 0 2.0625 0.640625q0.671875 0.625 0.671875 1.703125l0 6.125l-1.359375 0l0 -5.484375q0 -0.890625 -0.375 -1.328125q-0.375 -0.453125 -1.21875 -0.453125q-1.015625 0 -1.59375 0.59375q-0.5625 0.59375 -0.5625 1.46875l0 5.203125l-1.375 0l0 -5.484375q0 -0.890625 -0.375 -1.328125q-0.375 -0.453125 -1.171875 -0.453125q-0.640625 0 -1.140625 0.3125q-0.5 0.3125 -0.78125 0.859375q-0.28125 0.53125 -0.28125 0.90625l0 5.1875l-1.359375 0l0 -8.28125l1.28125 0l0 1.21875l0.03125 0q0.46875 -0.703125 1.125 -1.046875q0.671875 -0.359375 1.546875 -0.359375zm13.7421875 0q1.765625 0 2.78125 1.21875q1.03125 1.21875 1.03125 3.140625q0 1.921875 -1.015625 3.125q-1.015625 1.1875 -2.765625 1.1875q-0.765625 0 -1.515625 -0.328125q-0.734375 -0.328125 -1.15625 -0.984375l-0.03125 0l0 4.28125l-1.359375 0l0 -11.453125l1.359375 0l0 1.125l0.03125 0q0.3125 -0.640625 1.0 -0.96875q0.703125 -0.34375 1.640625 -0.34375zm-2.71875 4.328125q0 1.4375 0.6875 2.28125q0.703125 0.84375 1.921875 0.84375q1.171875 0 1.8125 -0.84375q0.65625 -0.84375 0.65625 -2.34375q0 -1.34375 -0.6875 -2.203125q-0.671875 -0.859375 -1.875 -0.859375q-1.203125 0 -1.859375 0.875q-0.65625 0.875 -0.65625 2.25zm9.5625 -7.28125l0 11.421875l-1.359375 0l0 -11.421875l1.359375 0zm5.5546875 2.953125q1.78125 0 2.765625 1.28125q0.984375 1.28125 0.984375 3.296875l0 0.15625l-6.203125 0l0 0.109375q0 1.171875 0.6875 1.890625q0.6875 0.71875 1.890625 0.71875q0.90625 0 1.4375 -0.421875q0.546875 -0.421875 0.703125 -1.1875l1.34375 0q-0.265625 1.375 -1.203125 2.109375q-0.921875 0.71875 -2.328125 0.71875q-1.296875 0 -2.203125 -0.59375q-0.90625 -0.59375 -1.34375 -1.640625q-0.421875 -1.0625 -0.421875 -2.15625q0 -1.828125 1.09375 -3.046875q1.109375 -1.234375 2.796875 -1.234375zm-2.453125 3.53125l4.75 0q-0.0625 -1.0 -0.734375 -1.65625q-0.65625 -0.671875 -1.65625 -0.671875q-0.9375 0 -1.609375 0.640625q-0.65625 0.625 -0.75 1.6875zm11.71875 -3.53125q0.046875 0 0.078125 0q0.046875 0 0.109375 0l0 1.4375q-1.53125 0 -2.265625 0.8125q-0.71875 0.8125 -0.71875 2.515625l0 3.703125l-1.359375 0l0 -8.28125l1.28125 0l0 1.75l0.03125 0q0.46875 -0.984375 1.171875 -1.453125q0.703125 -0.484375 1.671875 -0.484375z" fill-rule="nonzero"/><path fill="#d9ead3" d="m599.61365 96.45932l24.0 0l0 24.0l-24.0 0z" fill-rule="evenodd"/><path stroke="#38761d" stroke-width="1.0" stroke-linejoin="round" stroke-linecap="butt" d="m599.61365 96.45932l24.0 0l0 24.0l-24.0 0z" fill-rule="evenodd"/><path fill="#000000" fill-opacity="0.0" d="m618.568 89.073494l79.40155 0l0 38.771652l-79.40155 0z" fill-rule="evenodd"/><path fill="#000000" d="m643.65936 102.01162l0 1.28125l-3.8125 0l0 10.140625l-1.515625 0l0 -10.140625l-3.8125 0l0 -1.28125l9.140625 0zm3.6171875 2.953125q0.046875 0 0.078125 0q0.046875 0 0.109375 0l0 1.4375q-1.53125 0 -2.265625 0.8125q-0.71875 0.8125 -0.71875 2.515625l0 3.703125l-1.359375 0l0 -8.28125l1.28125 0l0 1.75l0.03125 0q0.46875 -0.984375 1.171875 -1.453125q0.703125 -0.484375 1.671875 -0.484375zm4.2109375 0q1.6875 0 2.390625 0.609375q0.71875 0.59375 0.71875 1.609375q0 4.296875 0 4.765625q0 0.46875 0.421875 0.46875q0.09375 0 0.203125 -0.015625q0.109375 -0.03125 0.21875 -0.0625l0 1.0625q-0.1875 0.109375 -0.4375 0.171875q-0.25 0.0625 -0.53125 0.0625q-0.5625 0 -0.859375 -0.3125q-0.296875 -0.328125 -0.296875 -0.984375q-0.546875 0.640625 -1.28125 0.96875q-0.734375 0.328125 -1.640625 0.328125q-1.28125 0 -2.015625 -0.609375q-0.71875 -0.609375 -0.71875 -1.71875q0 -1.125 0.703125 -1.765625q0.71875 -0.65625 3.359375 -0.984375q0.890625 -0.125 1.203125 -0.34375q0.3125 -0.234375 0.3125 -0.6875q0 -0.6875 -0.4375 -1.015625q-0.4375 -0.34375 -1.40625 -0.34375q-1.0 0 -1.515625 0.390625q-0.5 0.375 -0.53125 1.171875l-1.359375 0q0.0625 -1.375 0.96875 -2.0625q0.90625 -0.703125 2.53125 -0.703125zm-2.390625 6.234375q0 0.578125 0.421875 0.90625q0.421875 0.3125 1.1875 0.3125q1.140625 0 1.828125 -0.5625q0.6875 -0.578125 0.6875 -1.28125l0 -1.421875q-0.34375 0.25 -0.890625 0.34375q-0.546875 0.078125 -1.453125 0.203125q-0.90625 0.125 -1.34375 0.484375q-0.4375 0.359375 -0.4375 1.015625zm9.046875 -9.1875l0 1.65625l-1.359375 0l0 -1.65625l1.359375 0zm0 3.140625l0 8.28125l-1.359375 0l0 -8.28125l1.359375 0zm6.1171875 -0.1875q1.5 0 2.171875 0.765625q0.671875 0.765625 0.671875 2.1875l0 5.515625l-1.359375 0l0 -5.65625q0 -0.703125 -0.453125 -1.15625q-0.4375 -0.453125 -1.234375 -0.453125q-1.15625 0 -1.796875 0.703125q-0.640625 0.703125 -0.640625 1.828125l0 4.734375l-1.359375 0l0 -8.28125l1.28125 0l0 1.3125l0.03125 0q0.453125 -0.765625 1.109375 -1.125q0.65625 -0.375 1.578125 -0.375zm8.3359375 0q1.78125 0 2.765625 1.28125q0.984375 1.28125 0.984375 3.296875l0 0.15625l-6.203125 0l0 0.109375q0 1.171875 0.6875 1.890625q0.6875 0.71875 1.890625 0.71875q0.90625 0 1.4375 -0.421875q0.546875 -0.421875 0.703125 -1.1875l1.34375 0q-0.265625 1.375 -1.203125 2.109375q-0.921875 0.71875 -2.328125 0.71875q-1.296875 0 -2.203125 -0.59375q-0.90625 -0.59375 -1.34375 -1.640625q-0.421875 -1.0625 -0.421875 -2.15625q0 -1.828125 1.09375 -3.046875q1.109375 -1.234375 2.796875 -1.234375zm-2.453125 3.53125l4.75 0q-0.0625 -1.0 -0.734375 -1.65625q-0.65625 -0.671875 -1.65625 -0.671875q-0.9375 0 -1.609375 0.640625q-0.65625 0.625 -0.75 1.6875zm11.71875 -3.53125q0.046875 0 0.078125 0q0.046875 0 0.109375 0l0 1.4375q-1.53125 0 -2.265625 0.8125q-0.71875 0.8125 -0.71875 2.515625l0 3.703125l-1.359375 0l0 -8.28125l1.28125 0l0 1.75l0.03125 0q0.46875 -0.984375 1.171875 -1.453125q0.703125 -0.484375 1.671875 -0.484375z" fill-rule="nonzero"/><path fill="#fce5cd" d="m599.61365 127.419945l24.0 0l0 24.000008l-24.0 0z" fill-rule="evenodd"/><path stroke="#ff9900" stroke-width="1.0" stroke-linejoin="round" stroke-linecap="butt" d="m599.61365 127.419945l24.0 0l0 24.000008l-24.0 0z" fill-rule="evenodd"/><path fill="#000000" fill-opacity="0.0" d="m611.84796 120.03412l101.22839 0l0 38.771652l-101.22839 0z" fill-rule="evenodd"/><path fill="#000000" d="m641.76685 132.97224q1.484375 0 2.4375 0.796875q0.953125 0.78125 0.953125 2.1875q0 1.125 -0.5 1.875q-0.484375 0.734375 -1.484375 1.015625l0 0.03125q0.875 0.171875 1.28125 0.8125q0.40625 0.640625 0.46875 2.1875q0.046875 1.0 0.1875 1.578125q0.15625 0.5625 0.453125 0.9375l-1.703125 0q-0.140625 -0.1875 -0.1875 -0.375q-0.03125 -0.1875 -0.078125 -0.5l-0.0625 -1.265625q-0.015625 -0.875 -0.375 -1.78125q-0.359375 -0.921875 -1.5625 -0.96875l-3.765625 0l0 4.890625l-1.515625 0l0 -11.421875l5.453125 0zm-0.6875 5.265625q1.265625 0 1.90625 -0.5q0.65625 -0.5 0.65625 -1.546875q0 -0.921875 -0.515625 -1.421875q-0.515625 -0.515625 -1.453125 -0.515625l-3.84375 0l0 3.984375l3.25 0zm9.4140625 -2.3125q1.78125 0 2.765625 1.28125q0.984375 1.28125 0.984375 3.296875l0 0.15625l-6.203125 0l0 0.109375q0 1.171875 0.6875 1.890625q0.6875 0.71875 1.890625 0.71875q0.90625 0 1.4375 -0.421875q0.546875 -0.421875 0.703125 -1.1875l1.34375 0q-0.265625 1.375 -1.203125 2.109375q-0.921875 0.71875 -2.328125 0.71875q-1.296875 0 -2.203125 -0.59375q-0.90625 -0.59375 -1.34375 -1.640625q-0.421875 -1.0625 -0.421875 -2.15625q0 -1.828125 1.09375 -3.046875q1.109375 -1.234375 2.796875 -1.234375zm-2.453125 3.53125l4.75 0q-0.0625 -1.0 -0.734375 -1.65625q-0.65625 -0.671875 -1.65625 -0.671875q-0.9375 0 -1.609375 0.640625q-0.65625 0.625 -0.75 1.6875zm8.359375 -3.34375l1.875 6.765625l0.03125 0l1.65625 -6.765625l1.484375 0l1.734375 6.734375l0.015625 0.03125l0.015625 0l1.859375 -6.765625l1.40625 0l-2.625 8.25l-0.015625 0.03125l-1.4375 0l-1.671875 -6.546875l-0.015625 -0.03125l-0.03125 0l-1.65625 6.578125l-1.46875 0l-2.65625 -8.28125l1.5 0zm14.75 -0.1875q1.6875 0 2.390625 0.609375q0.71875 0.59375 0.71875 1.609375q0 4.296875 0 4.765625q0 0.46875 0.421875 0.46875q0.09375 0 0.203125 -0.015625q0.109375 -0.03125 0.21875 -0.0625l0 1.0625q-0.1875 0.109375 -0.4375 0.171875q-0.25 0.0625 -0.53125 0.0625q-0.5625 0 -0.859375 -0.3125q-0.296875 -0.328125 -0.296875 -0.984375q-0.546875 0.640625 -1.28125 0.96875q-0.734375 0.328125 -1.640625 0.328125q-1.28125 0 -2.015625 -0.609375q-0.71875 -0.609375 -0.71875 -1.71875q0 -1.125 0.703125 -1.765625q0.71875 -0.65625 3.359375 -0.984375q0.890625 -0.125 1.203125 -0.34375q0.3125 -0.234375 0.3125 -0.6875q0 -0.6875 -0.4375 -1.015625q-0.4375 -0.34375 -1.40625 -0.34375q-1.0 0 -1.515625 0.390625q-0.5 0.375 -0.53125 1.171875l-1.359375 0q0.0625 -1.375 0.96875 -2.0625q0.90625 -0.703125 2.53125 -0.703125zm-2.390625 6.234375q0 0.578125 0.421875 0.90625q0.421875 0.3125 1.1875 0.3125q1.140625 0 1.828125 -0.5625q0.6875 -0.578125 0.6875 -1.28125l0 -1.421875q-0.34375 0.25 -0.890625 0.34375q-0.546875 0.078125 -1.453125 0.203125q-0.90625 0.125 -1.34375 0.484375q-0.4375 0.359375 -0.4375 1.015625zm11.71875 -6.234375q0.046875 0 0.078125 0q0.046875 0 0.109375 0l0 1.4375q-1.53125 0 -2.265625 0.8125q-0.71875 0.8125 -0.71875 2.515625l0 3.703125l-1.359375 0l0 -8.28125l1.28125 0l0 1.75l0.03125 0q0.46875 -0.984375 1.171875 -1.453125q0.703125 -0.484375 1.671875 -0.484375zm8.3203125 -2.953125l0 11.421875l-1.359375 0l0 -1.125l-0.03125 0q-0.328125 0.640625 -1.03125 0.984375q-0.6875 0.34375 -1.609375 0.34375q-1.734375 0 -2.78125 -1.203125q-1.03125 -1.21875 -1.03125 -3.15625q0 -1.921875 1.0 -3.109375q1.015625 -1.203125 2.765625 -1.203125q0.8125 0 1.546875 0.328125q0.734375 0.328125 1.140625 0.96875l0.03125 0l0 -4.25l1.359375 0zm-6.40625 7.34375q0 1.34375 0.6875 2.203125q0.703125 0.859375 1.875 0.859375q1.203125 0 1.859375 -0.859375q0.671875 -0.859375 0.671875 -2.25q0 -1.421875 -0.6875 -2.28125q-0.671875 -0.859375 -1.9375 -0.859375q-1.171875 0 -1.828125 0.859375q-0.640625 0.84375 -0.640625 2.328125z" fill-rule="nonzero"/><path fill="#000000" fill-opacity="0.0" d="m4.8 232.76115l540.50397 0" fill-rule="evenodd"/><path stroke="#000000" stroke-width="2.0" stroke-linejoin="round" stroke-linecap="butt" d="m4.8 232.76115l528.50397 0" fill-rule="evenodd"/><path fill="#000000" stroke="#000000" stroke-width="2.0" stroke-linecap="butt" d="m533.30396 236.06462l9.076172 -3.3034668l-9.076172 -3.3034668z" fill-rule="evenodd"/><path fill="#000000" fill-opacity="0.0" d="m241.1622 229.71916l67.77954 0l0 42.01573l-67.77954 0z" fill-rule="evenodd"/><path fill="#000000" d="m265.22937 243.32666l0 1.484375l-4.4375 0l0 11.828125l-1.765625 0l0 -11.828125l-4.453125 0l0 -1.484375l10.65625 0zm3.1281433 0l0 1.9375l-1.59375 0l0 -1.9375l1.59375 0zm0 3.671875l0 9.640625l-1.59375 0l0 -9.640625l1.59375 0zm7.113556 -0.21875q1.046875 0 1.71875 0.421875q0.671875 0.421875 0.921875 1.21875q0.5 -0.78125 1.28125 -1.203125q0.796875 -0.4375 1.765625 -0.4375q1.625 0 2.40625 0.734375q0.78125 0.734375 0.78125 2.0l0 7.125l-1.578125 0l0 -6.390625q0 -1.046875 -0.453125 -1.5625q-0.4375 -0.515625 -1.421875 -0.515625q-1.1875 0 -1.859375 0.6875q-0.65625 0.6875 -0.65625 1.71875l0 6.0625l-1.59375 0l0 -6.390625q0 -1.046875 -0.4375 -1.5625q-0.4375 -0.515625 -1.359375 -0.515625q-0.765625 0 -1.34375 0.359375q-0.578125 0.359375 -0.90625 1.0q-0.328125 0.625 -0.328125 1.0625l0 6.046875l-1.59375 0l0 -9.640625l1.5 0l0 1.421875l0.03125 0q0.546875 -0.84375 1.3125 -1.234375q0.78125 -0.40625 1.8125 -0.40625zm15.273682 0q2.078125 0 3.21875 1.5q1.15625 1.484375 1.15625 3.828125l0 0.1875l-7.234375 0l0 0.109375q0 1.390625 0.796875 2.234375q0.8125 0.828125 2.21875 0.828125q1.046875 0 1.671875 -0.484375q0.625 -0.5 0.828125 -1.40625l1.5625 0q-0.328125 1.609375 -1.40625 2.453125q-1.078125 0.84375 -2.71875 0.84375q-1.515625 0 -2.578125 -0.6875q-1.046875 -0.6875 -1.546875 -1.90625q-0.5 -1.234375 -0.5 -2.515625q0 -2.140625 1.28125 -3.5625q1.296875 -1.421875 3.25 -1.421875zm-2.859375 4.109375l5.546875 0q-0.078125 -1.171875 -0.859375 -1.9375q-0.765625 -0.78125 -1.9375 -0.78125q-1.09375 0 -1.875 0.734375q-0.765625 0.734375 -0.875 1.984375z" fill-rule="nonzero"/><path fill="#d9ead3" d="m176.64 112.22572l29.606293 0l0 102.80315l-29.606293 0z" fill-rule="evenodd"/><path stroke="#38761d" stroke-width="1.0" stroke-linejoin="round" stroke-linecap="butt" d="m176.64 112.22572l29.606293 0l0 102.80315l-29.606293 0z" fill-rule="evenodd"/><path fill="#000000" d="m196.02127 158.06541l0 1.28125l-3.8125 0l0 10.140625l-1.515625 0l0 -10.140625l-3.8125 0l0 -1.28125l9.140625 0z" fill-rule="nonzero"/><path fill="#d9ead3" d="m275.52 112.2231l45.480316 0l0 102.80315l-45.480316 0z" fill-rule="evenodd"/><path stroke="#38761d" stroke-width="1.0" stroke-linejoin="round" stroke-linecap="butt" d="m275.52 112.2231l45.480316 0l0 102.80315l-45.480316 0z" fill-rule="evenodd"/><path fill="#000000" d="m302.8383 158.06279l0 1.28125l-3.8125 0l0 10.140625l-1.515625 0l0 -10.140625l-3.8125 0l0 -1.28125l9.140625 0z" fill-rule="nonzero"/><path fill="#d9ead3" d="m341.86615 112.22572l57.606323 0l0 102.80315l-57.606323 0z" fill-rule="evenodd"/><path stroke="#38761d" stroke-width="1.0" stroke-linejoin="round" stroke-linecap="butt" d="m341.86615 112.22572l57.606323 0l0 102.80315l-57.606323 0z" fill-rule="evenodd"/><path fill="#000000" d="m375.24744 158.06541l0 1.28125l-3.8125 0l0 10.140625l-1.515625 0l0 -10.140625l-3.8125 0l0 -1.28125l9.140625 0z" fill-rule="nonzero"/><path fill="#f4cccc" d="m400.32 9.43832l45.480316 0l0 205.5433l-45.480316 0z" fill-rule="evenodd"/><path stroke="#980000" stroke-width="1.0" stroke-linejoin="round" stroke-linecap="butt" d="m400.32 9.43832l45.480316 0l0 205.5433l-45.480316 0z" fill-rule="evenodd"/><path fill="#000000" d="m423.70468 106.6481q2.125 0 2.875 0.859375q0.765625 0.84375 0.765625 1.9375q0 0.90625 -0.453125 1.578125q-0.4375 0.65625 -1.25 0.984375l0 0.03125q1.0625 0.21875 1.625 0.953125q0.5625 0.734375 0.5625 1.796875q0 1.390625 -0.984375 2.34375q-0.96875 0.9375 -2.4375 0.9375l-5.578125 0l0 -11.421875l4.875 0zm-0.234375 4.90625q1.140625 0 1.75 -0.421875q0.609375 -0.4375 0.609375 -1.40625q0 -0.90625 -0.515625 -1.34375q-0.5 -0.453125 -1.828125 -0.453125l-3.140625 0l0 3.625l3.125 0zm0.75 5.234375q0.921875 0 1.5 -0.546875q0.578125 -0.5625 0.578125 -1.5q0 -0.96875 -0.65625 -1.4375q-0.65625 -0.46875 -1.875 -0.46875l-3.421875 0l0 3.953125l3.875 0z" fill-rule="nonzero"/><path fill="#e6b8af" d="m599.61365 158.38058l24.0 0l0 24.0l-24.0 0z" fill-rule="evenodd"/><path stroke="#980000" stroke-width="1.0" stroke-linejoin="round" stroke-linecap="butt" d="m599.61365 158.38058l24.0 0l0 24.0l-24.0 0z" fill-rule="evenodd"/><path fill="#000000" fill-opacity="0.0" d="m619.84796 150.99475l101.22839 0l0 38.771652l-101.22839 0z" fill-rule="evenodd"/><path fill="#000000" d="m639.84106 163.93288q2.125 0 2.875 0.859375q0.765625 0.84375 0.765625 1.9375q0 0.90625 -0.453125 1.578125q-0.4375 0.65625 -1.25 0.984375l0 0.03125q1.0625 0.21875 1.625 0.953125q0.5625 0.734375 0.5625 1.796875q0 1.390625 -0.984375 2.34375q-0.96875 0.9375 -2.4375 0.9375l-5.578125 0l0 -11.421875l4.875 0zm-0.234375 4.90625q1.140625 0 1.75 -0.421875q0.609375 -0.4375 0.609375 -1.40625q0 -0.90625 -0.515625 -1.34375q-0.5 -0.453125 -1.828125 -0.453125l-3.140625 0l0 3.625l3.125 0zm0.75 5.234375q0.921875 0 1.5 -0.546875q0.578125 -0.5625 0.578125 -1.5q0 -0.96875 -0.65625 -1.4375q-0.65625 -0.46875 -1.875 -0.46875l-3.421875 0l0 3.953125l3.875 0zm9.4609375 -7.1875q0.046875 0 0.078125 0q0.046875 0 0.109375 0l0 1.4375q-1.53125 0 -2.265625 0.8125q-0.71875 0.8125 -0.71875 2.515625l0 3.703125l-1.359375 0l0 -8.28125l1.28125 0l0 1.75l0.03125 0q0.46875 -0.984375 1.171875 -1.453125q0.703125 -0.484375 1.671875 -0.484375zm4.4921875 0q1.875 0 2.9375 1.21875q1.078125 1.203125 1.078125 3.125q0 1.921875 -1.09375 3.125q-1.09375 1.203125 -2.921875 1.203125q-1.796875 0 -2.90625 -1.171875q-1.109375 -1.1875 -1.109375 -3.15625q0 -1.96875 1.078125 -3.15625q1.09375 -1.1875 2.9375 -1.1875zm-2.578125 4.34375q0 1.421875 0.71875 2.265625q0.734375 0.84375 1.859375 0.84375q1.125 0 1.84375 -0.84375q0.734375 -0.859375 0.734375 -2.265625q0 -1.421875 -0.734375 -2.28125q-0.71875 -0.859375 -1.859375 -0.859375q-1.09375 0 -1.828125 0.84375q-0.734375 0.84375 -0.734375 2.296875zm11.578125 -4.34375q1.6875 0 2.390625 0.609375q0.71875 0.59375 0.71875 1.609375q0 4.296875 0 4.765625q0 0.46875 0.421875 0.46875q0.09375 0 0.203125 -0.015625q0.109375 -0.03125 0.21875 -0.0625l0 1.0625q-0.1875 0.109375 -0.4375 0.171875q-0.25 0.0625 -0.53125 0.0625q-0.5625 0 -0.859375 -0.3125q-0.296875 -0.328125 -0.296875 -0.984375q-0.546875 0.640625 -1.28125 0.96875q-0.734375 0.328125 -1.640625 0.328125q-1.28125 0 -2.015625 -0.609375q-0.71875 -0.609375 -0.71875 -1.71875q0 -1.125 0.703125 -1.765625q0.71875 -0.65625 3.359375 -0.984375q0.890625 -0.125 1.203125 -0.34375q0.3125 -0.234375 0.3125 -0.6875q0 -0.6875 -0.4375 -1.015625q-0.4375 -0.34375 -1.40625 -0.34375q-1.0 0 -1.515625 0.390625q-0.5 0.375 -0.53125 1.171875l-1.359375 0q0.0625 -1.375 0.96875 -2.0625q0.90625 -0.703125 2.53125 -0.703125zm-2.390625 6.234375q0 0.578125 0.421875 0.90625q0.421875 0.3125 1.1875 0.3125q1.140625 0 1.828125 -0.5625q0.6875 -0.578125 0.6875 -1.28125l0 -1.421875q-0.34375 0.25 -0.890625 0.34375q-0.546875 0.078125 -1.453125 0.203125q-0.90625 0.125 -1.34375 0.484375q-0.4375 0.359375 -0.4375 1.015625zm15.0 -9.1875l0 11.421875l-1.359375 0l0 -1.125l-0.03125 0q-0.328125 0.640625 -1.03125 0.984375q-0.6875 0.34375 -1.609375 0.34375q-1.734375 0 -2.78125 -1.203125q-1.03125 -1.21875 -1.03125 -3.15625q0 -1.921875 1.0 -3.109375q1.015625 -1.203125 2.765625 -1.203125q0.8125 0 1.546875 0.328125q0.734375 0.328125 1.140625 0.96875l0.03125 0l0 -4.25l1.359375 0zm-6.40625 7.34375q0 1.34375 0.6875 2.203125q0.703125 0.859375 1.875 0.859375q1.203125 0 1.859375 -0.859375q0.671875 -0.859375 0.671875 -2.25q0 -1.421875 -0.6875 -2.28125q-0.671875 -0.859375 -1.9375 -0.859375q-1.171875 0 -1.828125 0.859375q-0.640625 0.84375 -0.640625 2.328125zm11.953125 -4.390625q1.515625 0 2.453125 0.71875q0.953125 0.71875 1.109375 2.125l-1.40625 0q-0.15625 -0.796875 -0.703125 -1.21875q-0.53125 -0.421875 -1.34375 -0.421875q-1.265625 0 -1.921875 0.84375q-0.65625 0.84375 -0.65625 2.390625q0 1.375 0.640625 2.203125q0.65625 0.8125 1.78125 0.8125q0.984375 0 1.5625 -0.53125q0.578125 -0.53125 0.703125 -1.484375l1.390625 0q-0.21875 1.546875 -1.15625 2.390625q-0.9375 0.84375 -2.484375 0.84375q-1.8125 0 -2.84375 -1.140625q-1.03125 -1.140625 -1.03125 -3.09375q0 -2.03125 1.046875 -3.234375q1.046875 -1.203125 2.859375 -1.203125zm8.515625 0q1.6875 0 2.390625 0.609375q0.71875 0.59375 0.71875 1.609375q0 4.296875 0 4.765625q0 0.46875 0.421875 0.46875q0.09375 0 0.203125 -0.015625q0.109375 -0.03125 0.21875 -0.0625l0 1.0625q-0.1875 0.109375 -0.4375 0.171875q-0.25 0.0625 -0.53125 0.0625q-0.5625 0 -0.859375 -0.3125q-0.296875 -0.328125 -0.296875 -0.984375q-0.546875 0.640625 -1.28125 0.96875q-0.734375 0.328125 -1.640625 0.328125q-1.28125 0 -2.015625 -0.609375q-0.71875 -0.609375 -0.71875 -1.71875q0 -1.125 0.703125 -1.765625q0.71875 -0.65625 3.359375 -0.984375q0.890625 -0.125 1.203125 -0.34375q0.3125 -0.234375 0.3125 -0.6875q0 -0.6875 -0.4375 -1.015625q-0.4375 -0.34375 -1.40625 -0.34375q-1.0 0 -1.515625 0.390625q-0.5 0.375 -0.53125 1.171875l-1.359375 0q0.0625 -1.375 0.96875 -2.0625q0.90625 -0.703125 2.53125 -0.703125zm-2.390625 6.234375q0 0.578125 0.421875 0.90625q0.421875 0.3125 1.1875 0.3125q1.140625 0 1.828125 -0.5625q0.6875 -0.578125 0.6875 -1.28125l0 -1.421875q-0.34375 0.25 -0.890625 0.34375q-0.546875 0.078125 -1.453125 0.203125q-0.90625 0.125 -1.34375 0.484375q-0.4375 0.359375 -0.4375 1.015625zm10.359375 -6.234375q1.671875 0 2.484375 0.65625q0.8125 0.640625 0.890625 1.9375l-1.359375 0l0 -0.015625q-0.0625 -0.65625 -0.578125 -1.015625q-0.515625 -0.359375 -1.34375 -0.359375q-0.8125 0 -1.296875 0.28125q-0.46875 0.265625 -0.46875 0.765625q0 0.453125 0.421875 0.75q0.421875 0.28125 1.265625 0.46875l1.28125 0.28125q1.203125 0.265625 1.828125 0.828125q0.625 0.546875 0.625 1.46875q0 1.21875 -0.953125 1.921875q-0.9375 0.703125 -2.578125 0.703125q-1.578125 0 -2.515625 -0.71875q-0.921875 -0.71875 -0.984375 -2.09375l1.359375 0q0.03125 0.765625 0.609375 1.1875q0.59375 0.40625 1.609375 0.40625q0.984375 0 1.484375 -0.3125q0.515625 -0.3125 0.515625 -0.921875q0 -0.546875 -0.5 -0.875q-0.5 -0.328125 -2.0625 -0.640625q-1.5625 -0.296875 -2.203125 -0.859375q-0.640625 -0.5625 -0.640625 -1.484375q0 -1.09375 0.875 -1.71875q0.890625 -0.640625 2.234375 -0.640625zm7.140625 -2.28125l0 2.46875l1.640625 0l0 1.203125l-1.640625 0l0 5.1875q0 0.609375 0.40625 0.65625q0.40625 0.03125 0.859375 0.03125l0.375 0l0 1.203125l-1.125 0q-1.109375 0 -1.5 -0.390625q-0.375 -0.40625 -0.375 -1.34375l0 -5.34375l-1.421875 0l0 -1.203125l1.421875 0l0 -2.46875l1.359375 0z" fill-rule="nonzero"/><path fill="#cfe2f3" d="m446.3987 9.43832l247.49606 0l0 25.669292l-247.49606 0z" fill-rule="evenodd"/><path stroke="#1155cc" stroke-width="1.0" stroke-linejoin="round" stroke-linecap="butt" d="m446.3987 9.43832l247.49606 0l0 25.669292l-247.49606 0z" fill-rule="evenodd"/><path fill="#000000" d="m565.60767 16.42984q1.90625 0 3.015625 0.921875q1.125 0.921875 1.1875 2.703125l-1.4375 0q-0.125 -1.171875 -0.84375 -1.75q-0.703125 -0.59375 -1.984375 -0.59375q-1.21875 0 -1.890625 0.515625q-0.671875 0.5 -0.671875 1.4375q0 0.671875 0.5625 1.109375q0.578125 0.421875 3.109375 0.921875q1.828125 0.375 2.734375 1.15625q0.90625 0.765625 0.90625 2.140625q0 1.59375 -1.3125 2.515625q-1.296875 0.90625 -3.15625 0.90625q-2.078125 0 -3.390625 -1.046875q-1.3125 -1.046875 -1.328125 -3.0l1.4375 0q0.015625 1.3125 0.9375 2.03125q0.921875 0.71875 2.390625 0.71875q1.390625 0 2.140625 -0.53125q0.765625 -0.53125 0.765625 -1.546875q0 -0.8125 -0.703125 -1.296875q-0.6875 -0.5 -2.515625 -0.84375q-2.4375 -0.46875 -3.265625 -1.1875q-0.828125 -0.734375 -0.828125 -1.9375q0 -1.53125 1.15625 -2.4375q1.171875 -0.90625 2.984375 -0.90625zm10.9765625 0.359375l0 11.34375l-1.359375 0l0 -8.125l-2.953125 0l0 -1.09375l0.046875 0q1.4375 0 2.21875 -0.515625q0.796875 -0.515625 1.0 -1.609375l1.046875 0z" fill-rule="nonzero"/><path fill="#cfe2f3" d="m446.39896 60.83202l53.543304 0l0 25.669292l-53.543304 0z" fill-rule="evenodd"/><path stroke="#1155cc" stroke-width="1.0" stroke-linejoin="round" stroke-linecap="butt" d="m446.39896 60.83202l53.543304 0l0 25.669292l-53.543304 0z" fill-rule="evenodd"/><path fill="#000000" d="m468.63153 67.82354q1.90625 0 3.015625 0.921875q1.125 0.921875 1.1875 2.703125l-1.4375 0q-0.125 -1.171875 -0.84375 -1.75q-0.703125 -0.59375 -1.984375 -0.59375q-1.21875 0 -1.890625 0.515625q-0.671875 0.5 -0.671875 1.4375q0 0.671875 0.5625 1.109375q0.578125 0.421875 3.109375 0.921875q1.828125 0.375 2.734375 1.15625q0.90625 0.765625 0.90625 2.140625q0 1.59375 -1.3125 2.515625q-1.296875 0.90625 -3.15625 0.90625q-2.078125 0 -3.390625 -1.046875q-1.3125 -1.046875 -1.328125 -3.0l1.4375 0q0.015625 1.3125 0.9375 2.03125q0.921875 0.71875 2.390625 0.71875q1.390625 0 2.140625 -0.53125q0.765625 -0.53125 0.765625 -1.546875q0 -0.8125 -0.703125 -1.296875q-0.6875 -0.5 -2.515625 -0.84375q-2.4375 -0.46875 -3.265625 -1.1875q-0.828125 -0.734375 -0.828125 -1.9375q0 -1.53125 1.15625 -2.4375q1.171875 -0.90625 2.984375 -0.90625zm9.4921875 0.359375q1.640625 0 2.546875 0.8125q0.90625 0.796875 0.90625 2.21875q0 0.6875 -0.40625 1.296875q-0.390625 0.59375 -1.15625 0.96875l0 0.03125q1.0 0.21875 1.515625 0.9375q0.53125 0.71875 0.53125 1.8125q0 1.578125 -1.09375 2.53125q-1.078125 0.9375 -2.8125 0.9375q-1.703125 0 -2.75 -0.953125q-1.03125 -0.953125 -1.03125 -2.703125l0 -0.0625l1.375 0q0.046875 1.21875 0.6875 1.859375q0.640625 0.640625 1.71875 0.640625q1.0625 0 1.765625 -0.609375q0.703125 -0.625 0.703125 -1.578125q0 -1.0 -0.671875 -1.578125q-0.65625 -0.59375 -1.796875 -0.59375q-0.171875 0 -0.375 0.015625q-0.1875 0 -0.390625 0.03125l0 -1.15625q0.171875 0.015625 0.5 0.015625q0.78125 0 1.25 -0.25q0.46875 -0.25 0.734375 -0.640625q0.265625 -0.40625 0.265625 -0.96875q0 -0.84375 -0.546875 -1.328125q-0.546875 -0.484375 -1.46875 -0.484375q-0.984375 0 -1.5625 0.65625q-0.5625 0.640625 -0.578125 1.796875l-1.359375 0q0.078125 -1.765625 0.984375 -2.703125q0.921875 -0.953125 2.515625 -0.953125z" fill-rule="nonzero"/><path fill="#cfe2f3" d="m446.39896 86.52756l115.71652 0l0 25.669296l-115.71652 0z" fill-rule="evenodd"/><path stroke="#1155cc" stroke-width="1.0" stroke-linejoin="round" stroke-linecap="butt" d="m446.39896 86.52756l115.71652 0l0 25.669296l-115.71652 0z" fill-rule="evenodd"/><path fill="#000000" d="m499.71817 93.51908q1.90625 0 3.015625 0.921875q1.125 0.921875 1.1875 2.703125l-1.4375 0q-0.125 -1.171875 -0.84375 -1.75q-0.703125 -0.59375 -1.984375 -0.59375q-1.21875 0 -1.890625 0.515625q-0.671875 0.5 -0.671875 1.4375q0 0.671875 0.5625 1.109375q0.578125 0.421875 3.109375 0.921875q1.828125 0.375 2.734375 1.15625q0.90625 0.765625 0.90625 2.140625q0 1.59375 -1.3125 2.515625q-1.296875 0.90625 -3.15625 0.90625q-2.078125 0 -3.390625 -1.046875q-1.3125 -1.046875 -1.328125 -3.0l1.4375 0q0.015625 1.3125 0.9375 2.03125q0.921875 0.71875 2.390625 0.71875q1.390625 0 2.140625 -0.53125q0.765625 -0.53125 0.765625 -1.546875q0 -0.8125 -0.703125 -1.296875q-0.6875 -0.5 -2.515625 -0.84375q-2.4375 -0.46875 -3.265625 -1.1875q-0.828125 -0.734375 -0.828125 -1.9375q0 -1.53125 1.15625 -2.4375q1.171875 -0.90625 2.984375 -0.90625zm11.9765625 0.359375l0 7.484375l1.5468445 0l0 1.203125l-1.5468445 0l0 2.65625l-1.28125 0l0 -2.65625l-4.96875 0l0 -1.3125l5.171875 -7.375l1.078125 0zm-1.3125 1.9375l-3.765625 5.546875l3.796875 0l0 -5.546875l-0.03125 0z" fill-rule="nonzero"/><path fill="#cfe2f3" d="m446.39853 35.48819l136.81888 0l0 25.669292l-136.81888 0z" fill-rule="evenodd"/><path stroke="#1155cc" stroke-width="1.0" stroke-linejoin="round" stroke-linecap="butt" d="m446.39853 35.48819l136.81888 0l0 25.669292l-136.81888 0z" fill-rule="evenodd"/><path fill="#000000" d="m505.74155 50.495335l1.4375 -0.125q0.09375 0.859375 0.46875 1.421875q0.375 0.546875 1.15625 0.890625q0.78125 0.328125 1.7500305 0.328125q0.875 0 1.53125 -0.25q0.671875 -0.265625 0.984375 -0.703125q0.328125 -0.453125 0.328125 -0.984375q0 -0.546875 -0.3125 -0.9375q-0.3125 -0.40625 -1.03125 -0.6875q-0.453125 -0.171875 -2.0312805 -0.546875q-1.578125 -0.390625 -2.21875 -0.71875q-0.8125 -0.4375 -1.21875 -1.0625q-0.40625 -0.640625 -0.40625 -1.4375q0 -0.859375 0.484375 -1.609375q0.5 -0.765625 1.4375 -1.15625q0.953125 -0.390625 2.109375 -0.390625q1.2812805 0 2.2500305 0.421875q0.96875 0.40625 1.484375 1.203125q0.53125 0.796875 0.578125 1.796875l-1.453125 0.109375q-0.125 -1.078125 -0.796875 -1.625q-0.671875 -0.5625 -2.0000305 -0.5625q-1.375 0 -2.0 0.5q-0.625 0.5 -0.625 1.21875q0 0.609375 0.4375 1.015625q0.4375 0.390625 2.28125 0.8125q1.8594055 0.421875 2.5469055 0.734375q1.0 0.453125 1.46875 1.171875q0.484375 0.703125 0.484375 1.625q0 0.90625 -0.53125 1.71875q-0.515625 0.8125 -1.5 1.265625q-0.984375 0.453125 -2.203125 0.453125q-1.5625305 0 -2.6094055 -0.453125q-1.046875 -0.46875 -1.65625 -1.375q-0.59375 -0.90625 -0.625 -2.0625zm18.015656 2.328125l0 1.359375l-7.578125 0q-0.015625 -0.515625 0.171875 -0.984375q0.28125 -0.765625 0.921875 -1.515625q0.640625 -0.75 1.84375 -1.734375q1.859375 -1.53125 2.515625 -2.421875q0.65625 -0.90625 0.65625 -1.703125q0 -0.828125 -0.59375 -1.40625q-0.59375 -0.578125 -1.5625 -0.578125q-1.015625 0 -1.625 0.609375q-0.609375 0.609375 -0.609375 1.6875l-1.453125 -0.140625q0.15625 -1.625 1.125 -2.46875q0.96875 -0.84375 2.59375 -0.84375q1.65625 0 2.609375 0.921875q0.96875 0.90625 0.96875 2.25q0 0.6875 -0.28125 1.359375q-0.28125 0.65625 -0.9375 1.390625q-0.65625 0.734375 -2.171875 2.015625q-1.265625 1.0625 -1.625 1.453125q-0.359375 0.375 -0.59375 0.75l5.625 0z" fill-rule="nonzero"/><path fill="#fce5cd" d="m77.10497 112.22572l18.614174 0l0 102.80315l-18.614174 0z" fill-rule="evenodd"/><path stroke="#ff9900" stroke-width="1.0" stroke-linejoin="round" stroke-linecap="butt" d="m77.10497 112.22572l18.614174 0l0 102.80315l-18.614174 0z" fill-rule="evenodd"/><path fill="#000000" fill-opacity="0.0" d="m67.938324 144.24147l36.724403 0l0 38.771652l-36.724403 0z" fill-rule="evenodd"/><path fill="#000000" d="m87.523186 157.1796q1.484375 0 2.4375 0.796875q0.953125 0.78125 0.953125 2.1875q0 1.125 -0.5 1.875q-0.484375 0.734375 -1.484375 1.015625l0 0.03125q0.875 0.171875 1.28125 0.8125q0.40625 0.640625 0.46875 2.1875q0.046875 1.0 0.1875 1.578125q0.15625 0.5625 0.453125 0.9375l-1.703125 0q-0.140625 -0.1875 -0.1875 -0.375q-0.03125 -0.1875 -0.078125 -0.5l-0.0625 -1.265625q-0.015625 -0.875 -0.375 -1.78125q-0.359375 -0.921875 -1.5625 -0.96875l-3.7656326 0l0 4.890625l-1.515625 0l0 -11.421875l5.4531326 0zm-0.6875 5.265625q1.265625 0 1.90625 -0.5q0.65625 -0.5 0.65625 -1.546875q0 -0.921875 -0.515625 -1.421875q-0.515625 -0.515625 -1.453125 -0.515625l-3.8437576 0l0 3.984375l3.2500076 0z" fill-rule="nonzero"/><path fill="#fce5cd" d="m157.00665 112.2231l18.614182 0l0 102.80315l-18.614182 0z" fill-rule="evenodd"/><path stroke="#ff9900" stroke-width="1.0" stroke-linejoin="round" stroke-linecap="butt" d="m157.00665 112.2231l18.614182 0l0 102.80315l-18.614182 0z" fill-rule="evenodd"/><path fill="#000000" fill-opacity="0.0" d="m147.84 144.23885l36.72441 0l0 38.771652l-36.72441 0z" fill-rule="evenodd"/><path fill="#000000" d="m167.42487 157.17697q1.484375 0 2.4375 0.796875q0.953125 0.78125 0.953125 2.1875q0 1.125 -0.5 1.875q-0.484375 0.734375 -1.484375 1.015625l0 0.03125q0.875 0.171875 1.28125 0.8125q0.40625 0.640625 0.46875 2.1875q0.046875 1.0 0.1875 1.578125q0.15625 0.5625 0.453125 0.9375l-1.703125 0q-0.140625 -0.1875 -0.1875 -0.375q-0.03125 -0.1875 -0.078125 -0.5l-0.0625 -1.265625q-0.015625 -0.875 -0.375 -1.78125q-0.359375 -0.921875 -1.5625 -0.96875l-3.765625 0l0 4.890625l-1.515625 0l0 -11.421875l5.453125 0zm-0.6875 5.265625q1.265625 0 1.90625 -0.5q0.65625 -0.5 0.65625 -1.546875q0 -0.921875 -0.515625 -1.421875q-0.515625 -0.515625 -1.453125 -0.515625l-3.84375 0l0 3.984375l3.25 0z" fill-rule="nonzero"/><path fill="#fce5cd" d="m255.88666 112.2231l18.614166 0l0 102.80315l-18.614166 0z" fill-rule="evenodd"/><path stroke="#ff9900" stroke-width="1.0" stroke-linejoin="round" stroke-linecap="butt" d="m255.88666 112.2231l18.614166 0l0 102.80315l-18.614166 0z" fill-rule="evenodd"/><path fill="#000000" fill-opacity="0.0" d="m246.72 144.23885l36.724396 0l0 38.771652l-36.724396 0z" fill-rule="evenodd"/><path fill="#000000" d="m266.30487 157.17697q1.484375 0 2.4375 0.796875q0.953125 0.78125 0.953125 2.1875q0 1.125 -0.5 1.875q-0.484375 0.734375 -1.484375 1.015625l0 0.03125q0.875 0.171875 1.28125 0.8125q0.40625 0.640625 0.46875 2.1875q0.046875 1.0 0.1875 1.578125q0.15625 0.5625 0.453125 0.9375l-1.703125 0q-0.140625 -0.1875 -0.1875 -0.375q-0.03125 -0.1875 -0.078125 -0.5l-0.0625 -1.265625q-0.015625 -0.875 -0.375 -1.78125q-0.359375 -0.921875 -1.5625 -0.96875l-3.765625 0l0 4.890625l-1.515625 0l0 -11.421875l5.453125 0zm-0.6875 5.265625q1.265625 0 1.90625 -0.5q0.65625 -0.5 0.65625 -1.546875q0 -0.921875 -0.515625 -1.421875q-0.515625 -0.515625 -1.453125 -0.515625l-3.84375 0l0 3.984375l3.25 0z" fill-rule="nonzero"/><path fill="#fce5cd" d="m322.12665 112.22572l18.614166 0l0 102.80315l-18.614166 0z" fill-rule="evenodd"/><path stroke="#ff9900" stroke-width="1.0" stroke-linejoin="round" stroke-linecap="butt" d="m322.12665 112.22572l18.614166 0l0 102.80315l-18.614166 0z" fill-rule="evenodd"/><path fill="#000000" fill-opacity="0.0" d="m312.96 144.24147l36.724426 0l0 38.771652l-36.724426 0z" fill-rule="evenodd"/><path fill="#000000" d="m332.54486 157.1796q1.484375 0 2.4375 0.796875q0.953125 0.78125 0.953125 2.1875q0 1.125 -0.5 1.875q-0.484375 0.734375 -1.484375 1.015625l0 0.03125q0.875 0.171875 1.28125 0.8125q0.40625 0.640625 0.46875 2.1875q0.046875 1.0 0.1875 1.578125q0.15625 0.5625 0.453125 0.9375l-1.703125 0q-0.140625 -0.1875 -0.1875 -0.375q-0.03125 -0.1875 -0.078125 -0.5l-0.0625 -1.265625q-0.015625 -0.875 -0.375 -1.78125q-0.359375 -0.921875 -1.5625 -0.96875l-3.765625 0l0 4.890625l-1.515625 0l0 -11.421875l5.453125 0zm-0.6875 5.265625q1.265625 0 1.90625 -0.5q0.65625 -0.5 0.65625 -1.546875q0 -0.921875 -0.515625 -1.421875q-0.515625 -0.515625 -1.453125 -0.515625l-3.84375 0l0 3.984375l3.25 0z" fill-rule="nonzero"/><path fill="#d9ead3" d="m519.58167 112.2231l29.606323 0l0 102.80315l-29.606323 0z" fill-rule="evenodd"/><path stroke="#38761d" stroke-width="1.0" stroke-linejoin="round" stroke-linecap="butt" d="m519.58167 112.2231l29.606323 0l0 102.80315l-29.606323 0z" fill-rule="evenodd"/><path fill="#000000" d="m538.96295 158.06279l0 1.28125l-3.8125 0l0 10.140625l-1.515625 0l0 -10.140625l-3.8125 0l0 -1.28125l9.140625 0z" fill-rule="nonzero"/><path fill="#fce5cd" d="m562.12665 112.22572l18.614197 0l0 102.80315l-18.614197 0z" fill-rule="evenodd"/><path stroke="#ff9900" stroke-width="1.0" stroke-linejoin="round" stroke-linecap="butt" d="m562.12665 112.22572l18.614197 0l0 102.80315l-18.614197 0z" fill-rule="evenodd"/><path fill="#000000" fill-opacity="0.0" d="m552.96 144.24147l36.724365 0l0 38.771652l-36.724365 0z" fill-rule="evenodd"/><path fill="#000000" d="m572.54486 157.1796q1.484375 0 2.4375 0.796875q0.953125 0.78125 0.953125 2.1875q0 1.125 -0.5 1.875q-0.484375 0.734375 -1.484375 1.015625l0 0.03125q0.875 0.171875 1.28125 0.8125q0.40625 0.640625 0.46875 2.1875q0.046875 1.0 0.1875 1.578125q0.15625 0.5625 0.453125 0.9375l-1.703125 0q-0.140625 -0.1875 -0.1875 -0.375q-0.03125 -0.1875 -0.078125 -0.5l-0.0625 -1.265625q-0.015625 -0.875 -0.375 -1.78125q-0.359375 -0.921875 -1.5625 -0.96875l-3.765625 0l0 4.890625l-1.515625 0l0 -11.421875l5.453125 0zm-0.6875 5.265625q1.265625 0 1.90625 -0.5q0.65625 -0.5 0.65625 -1.546875q0 -0.921875 -0.515625 -1.421875q-0.515625 -0.515625 -1.453125 -0.515625l-3.84375 0l0 3.984375l3.25 0z" fill-rule="nonzero"/><path fill="#fce5cd" d="m499.72665 112.22572l18.614166 0l0 102.80315l-18.614166 0z" fill-rule="evenodd"/><path stroke="#ff9900" stroke-width="1.0" stroke-linejoin="round" stroke-linecap="butt" d="m499.72665 112.22572l18.614166 0l0 102.80315l-18.614166 0z" fill-rule="evenodd"/><path fill="#000000" fill-opacity="0.0" d="m490.56 144.24147l36.724426 0l0 38.771652l-36.724426 0z" fill-rule="evenodd"/><path fill="#000000" d="m510.14487 157.1796q1.484375 0 2.4374695 0.796875q0.953125 0.78125 0.953125 2.1875q0 1.125 -0.5 1.875q-0.484375 0.734375 -1.4843445 1.015625l0 0.03125q0.8749695 0.171875 1.2812195 0.8125q0.40625 0.640625 0.46875 2.1875q0.046875 1.0 0.1875 1.578125q0.15625 0.5625 0.453125 0.9375l-1.703125 0q-0.140625 -0.1875 -0.1875 -0.375q-0.03125 -0.1875 -0.07809448 -0.5l-0.0625 -1.265625q-0.015625 -0.875 -0.375 -1.78125q-0.359375 -0.921875 -1.5625 -0.96875l-3.765625 0l0 4.890625l-1.515625 0l0 -11.421875l5.453125 0zm-0.6875 5.265625q1.265625 0 1.90625 -0.5q0.6562195 -0.5 0.6562195 -1.546875q0 -0.921875 -0.5155945 -1.421875q-0.515625 -0.515625 -1.453125 -0.515625l-3.84375 0l0 3.984375l3.25 0z" fill-rule="nonzero"/></g></svg>